Ostrich_Walking_Kinematics																														
version=1																														
nRows=34																														
nColumns=31																														
inDegrees=yes																														
endheader																														
time	pelvis_tilt	pelvis_list	pelvis_rotation	pelvis_tx	pelvis_ty	pelvis_tz	R_hip_extension	R_hip_abduction	R_hip_rotation	R_knee_angle	R_knee_varus	R_knee_rotation	R_ankle_angle	R_ankle_abduction	R_ankle_rotation	R_mtp_angle	R_mtp_abduction	R_mtp_rotation	L_hip_extension	L_hip_abduction	L_hip_rotation	L_knee_angle	L_knee_varus	L_knee_rotation	L_ankle_angle	L_ankle_abduction	L_ankle_rotation	L_mtp_angle	L_mtp_abduction	L_mtp_rotation
0.64	10.176	-1.441	-0.94439	1.5488	1.1542	-0.92057	48.27	-19.808	-32.533	-69.558	-9.0991	-3.859	18.863	10.084	7.2457	-35.532	23.761	7.6325	37.093	-14.561	-31.791	-97.464	-21.852	-9.0532	43.357	11.195	-5.9212	-92.323	-0.42892	15.904
0.645	9.9689	2.194	-1.3906	1.5547	1.1546	-0.92228	50.642	-22.306	-28.977	-70.96	-9.3935	-4.0303	19.005	10.494	6.9712	-35.881	23.439	7.8136	38.398	-16.052	-30.51	-99.52	-22.41	-9.1748	45.866	11.388	-7.3637	-96.534	-1.2199	13.122
0.65	9.9919	-0.299	-1.3883	1.5631	1.156	-0.91926	49.276	-20.602	-31.071	-70.758	-9.4222	-3.503	18.734	10.136	6.9794	-34.92	23.507	7.8015	38.928	-17.142	-29.634	-100.61	-22.213	-9.3085	48.576	11.372	-8.3618	-102.43	-2.2799	11.493
0.655	10.168	0.506	-1.368	1.5691	1.1565	-0.92041	49.328	-21.252	-30.148	-71.147	-9.4059	-3.4896	19.109	10.172	6.5268	-35.464	24.393	7.6332	37.766	-14.714	-32.524	-100.92	-22.66	-10.268	50.517	12.02	-8.838	-106.01	-3.0161	8.6412
0.66	9.987	-1.398	-1.1366	1.5764	1.1568	-0.91795	48.577	-20.007	-31.932	-70.931	-9.7586	-3.3772	18.565	10.506	6.6622	-34.705	23.652	7.7395	31.071	0.34927	-37.689	-84.18	-19.858	-7.9619	24.147	7.9787	-1.9044	-63.472	4.2289	23.575
0.665	9.9735	-2.065	-1.368	1.5836	1.1579	-0.91632	48.307	-19.502	-32.32	-71.26	-9.6873	-3.0341	18.947	10.167	6.4061	-35.254	23.872	7.9525	32.088	-2.964	-35.516	-86.087	-20.474	-7.8936	26.17	8.3738	-3.056	-68.555	3.3843	22.991
0.67	9.9715	1.605	-1.8716	1.5906	1.1579	-0.91632	49.98	-21.784	-28.343	-72.304	-9.4639	-2.8006	18.83	10.286	6.1342	-34.374	23.311	7.9802	32.263	-3.3996	-34.43	-86.51	-20.036	-8.3255	27.254	8.5362	-3.4921	-71.549	2.9617	21.606
0.675	10.003	-3.02	-1.1441	1.5958	1.1598	-0.91499	47.678	-18.692	-32.848	-71.523	-9.9089	-3.6139	18.779	10.484	6.6749	-34.711	23.585	8.1175	32.371	-1.1859	-37.337	-87.495	-21.091	-9.0157	29.634	9.0457	-3.4361	-77.088	2.0882	20.42
0.68	10.204	-2.859	-1.1509	1.6028	1.1598	-0.91499	47.621	-19.493	-32.682	-72.294	-9.9308	-2.6814	19.121	10.225	5.7851	-35.09	24.542	7.9011	32.255	-2.4506	-35.09	-87.417	-20.817	-9.4064	31.017	9.8032	-3.4753	-80.948	1.4581	18.32
0.685	10.21	0.419	-1.8981	1.6081	1.1617	-0.91366	49.281	-21.175	-29.311	-73.245	-10.254	-2.3183	19.324	10.624	5.361	-35.072	23.663	7.9546	31.941	-1.0793	-36.758	-88.316	-21.274	-9.7101	32.998	9.9743	-3.8638	-84.949	0.81109	17.488
0.69	10.2	-2.197	-1.142	1.6156	1.1606	-0.91484	47.552	-19.785	-31.713	-72.616	-9.8704	-2.9746	18.935	10.404	5.9455	-34.718	24.131	8.0627	31.676	0.13456	-37.881	-88.484	-21.325	-10.009	34.766	10.454	-4.5681	-89.042	0.1543	15.272
0.695	10.221	-0.887	-1.6573	1.6212	1.1629	-0.91198	48.407	-20.314	-30.097	-73.51	-10.198	-2.6641	19.495	10.673	5.7634	-34.94	23.766	7.9551	32.803	-4.7739	-34.468	-90.363	-21.956	-10.693	36.605	11.439	-5.2538	-93.416	-0.55087	12.721
0.7	10.192	-0.775	-1.5924	1.6276	1.1616	-0.91384	48.614	-20.744	-29.668	-73.98	-9.8402	-2.6618	19.203	10.604	5.598	-34.971	23.776	8.2033	32.048	-0.81577	-37.057	-90.222	-21.961	-11.097	38.725	11.632	-5.7594	-97.306	-1.1619	11.576
0.705	10.209	0.474	-2.0987	1.6332	1.1639	-0.91098	49.032	-21.307	-28.27	-74.337	-9.9259	-2.6656	19.561	10.673	5.2827	-35.795	24.567	7.9836	32.35	-2.6687	-36.25	-91.222	-22.175	-11.337	40.634	12.306	-6.1839	-101.08	-1.8149	8.3264
0.71	10.221	-1.679	-1.6573	1.6392	1.1649	-0.90998	48.001	-20.203	-30.574	-74.329	-10.401	-2.2198	19.733	10.702	5.4195	-35.855	24.26	8.0059	33.183	-5.0815	-34.936	-92.946	-22.774	-11.379	42.812	12.791	-7.2274	-105.31	-2.4125	6.637
0.715	10.203	-3.454	-1.3515	1.646	1.164	-0.91032	47.307	-19.278	-31.911	-74.575	-10.274	-2.224	19.972	10.65	5.2426	-36.078	24.532	8.033	31.946	-0.49001	-38.248	-92.405	-23.237	-12.309	44.743	13.281	-7.3632	-108.42	-2.8618	5.6801
0.72	10.199	0.123	-2.0975	1.6501	1.1657	-0.90966	48.858	-21.14	-28.295	-75.072	-10.269	-2.4216	19.444	10.794	5.5737	-35.503	23.832	8.1643	32.422	-3.5947	-36.148	-93.581	-23.268	-12.78	46.875	14.043	-8.0264	-112.46	-3.5283	2.9955
0.725	10.172	-2.105	-1.3544	1.6557	1.1664	-0.91117	47.62	-20.421	-30.8	-74.92	-10.718	-1.6932	19.958	11.14	4.6714	-36.506	24.473	7.7437	32.645	-3.5321	-36.489	-94.743	-23.872	-12.933	49.156	14.718	-9.5489	-114.93	-3.742	0.86323
0.73	10.224	-0.775	-1.8665	1.663	1.167	-0.90832	48.031	-20.908	-28.91	-75.33	-10.16	-2.5354	20.225	11.201	5.2817	-37.187	24.618	7.8107	32.583	-2.8762	-37.275	-95.151	-23.747	-13.738	50.546	15.278	-9.2976	-116.88	-4.0871	-0.37368
0.735	10.198	-0.807	-2.078	1.6671	1.1687	-0.90766	47.841	-20.82	-28.77	-75.251	-10.145	-1.8359	20.129	10.757	4.9313	-37.01	25.234	7.6093	32.619	-3.6787	-36.634	-95.685	-24.097	-14.121	52.773	15.508	-10.557	-120.83	-4.6695	-2.1616
0.74	10.223	0.769	-1.8466	1.6735	1.1685	-0.90949	49.113	-22.258	-27.446	-76.373	-10.807	-2.3563	20.188	11.751	4.8562	-37.563	24.528	7.5612	32.109	-1.8941	-38.191	-95.799	-24.128	-14.869	54.183	16.187	-10.973	-122.37	-4.8988	-3.9958
0.745	10.383	-1.368	-1.8599	1.6781	1.1717	-0.90666	47.371	-20.703	-29.611	-75.83	-11.116	-1.4833	20.597	11.547	4.3731	-37.664	25.054	7.2282	33.755	-6.3962	-35.932	-98.274	-24.6	-15.011	56.519	16.602	-11.406	-125.13	-5.4254	-5.4477
0.75	10.418	1.246	-2.0677	1.6854	1.1707	-0.90817	48.972	-22.419	-26.697	-77.027	-10.9	-1.9705	21.074	11.633	4.3828	-38.435	25.131	7.26	32.665	-4.4568	-36.779	-97.621	-24.285	-15.299	58.255	16.576	-12.082	-126.76	-5.5516	-6.106
0.755	10.412	0.411	-1.8771	1.6902	1.1716	-0.9078	48.703	-22.493	-27.621	-77.279	-11.117	-1.9375	20.513	11.835	4.7413	-37.981	25.118	7.1255	31.943	-2.2423	-38.224	-97.138	-24.529	-15.754	59.782	17.135	-12.778	-128.27	-5.6021	-6.9249
0.76	10.357	-4.134	-1.5385	1.6948	1.1748	-0.90499	45.868	-18.968	-31.624	-76.093	-10.739	-1.7547	21.09	11.495	5.0132	-38.472	24.813	7.282	33.507	-6.1164	-35.463	-99.172	-24.623	-16.194	62.026	17.574	-13.787	-130.4	-5.9576	-8.8512
0.765	10.569	0.699	-2.0713	1.6995	1.1765	-0.90649	48.375	-22.554	-27.27	-77.81	-11.346	-1.4501	21.335	11.972	4.0325	-38.866	25.126	6.9202	33.516	-7.1552	-36.154	-99.721	-25.034	-16.511	63.327	17.956	-14.113	-131.18	-5.9959	-9.0938
0.77	10.607	-0.556	-1.8771	1.7072	1.1759	-0.9055	47.452	-21.709	-28.544	-77.335	-11.363	-1.9724	20.916	11.665	4.8033	-38.609	25.868	6.8872	32.94	-5.6897	-35.932	-99.152	-24.397	-16.875	65.196	17.945	-14.806	-132.34	-6.0983	-9.4822
0.775	10.605	-1.117	-2.0786	1.7125	1.1782	-0.903	47.019	-21.209	-28.924	-77.527	-11.45	-1.4314	21.533	11.867	4.2141	-39.151	25.656	6.6998	33.465	-6.5043	-35.506	-99.781	-24.925	-17.288	66.905	18.564	-15.661	-134.05	-6.159	-10.388
0.78	10.605	0.103	-2.0589	1.7162	1.1806	-0.9048	48.154	-22.464	-28.216	-78.599	-12.155	-1.9894	21.332	12.063	4.7299	-39.076	25.675	6.6882	33.13	-5.3662	-36.84	-99.676	-25.11	-17.461	68.42	18.81	-16.649	-134.57	-6.2849	-11.744
0.785	10.8	0.233	-2.0786	1.7212	1.1816	-0.9038	47.596	-22.422	-27.945	-78.313	-11.713	-2.1157	21.037	11.71	4.4139	-39.162	26.214	6.7261	34.238	-8.2552	-35.084	-100.71	-24.737	-17.588	69.702	18.74	-16.906	-134.35	-6.2959	-11.422
0.79	10.8	-1.69	-2.0786	1.7266	1.1839	-0.90132	46.429	-21.064	-30.08	-77.899	-12.132	-2.3224	20.993	11.89	4.8898	-39.472	26.091	6.7474	33.055	-4.9688	-37.105	-99.556	-25.048	-17.397	71.476	18.779	-18.073	-135.33	-6.263	-11.936
0.795	10.795	0.601	-2.2452	1.7312	1.1856	-0.9028	47.768	-22.717	-28.258	-78.819	-12.509	-2.3619	21.034	11.574	4.7828	-39.261	26.328	6.8677	33.424	-3.7848	-38.842	-99.907	-25.33	-17.787	72.644	18.793	-17.957	-135.25	-6.3625	-11.644
0.8	10.991	-0.643	-2.0639	1.7362	1.1876	-0.9018	46.063	-21.613	-29.424	-77.788	-12.068	-2.9162	20.868	11.619	5.4093	-39.615	26.224	6.862	34.2	-7.8944	-35.189	-100.54	-25.097	-17.204	74.258	19.037	-19.183	-134.8	-6.1384	-12.681
0.805	10.99	0.128	-2.2643	1.7394	1.1904	-0.90111	46.788	-22.056	-28.87	-78.638	-12.661	-3.1696	21.064	11.729	5.3366	-39.46	26.342	6.8261	34.136	-6.145	-37.402	-100.36	-25.378	-17.519	75.386	19.043	-19.614	-134.83	-6.2069	-12.519
